<?xml version="1.0" encoding="utf-8"?>
<!-- Generator: Adobe Illustrator 17.0.0, SVG Export Plug-In . SVG Version: 6.00 Build 0)  -->
<!DOCTYPE svg PUBLIC "-//W3C//DTD SVG 1.1//EN" "http://www.w3.org/Graphics/SVG/1.1/DTD/svg11.dtd">
<svg version="1.1" id="Layer_1" xmlns="http://www.w3.org/2000/svg" xmlns:xlink="http://www.w3.org/1999/xlink" x="0px" y="0px"
	 width="22.011px" height="22.012px" viewBox="0 0 22.011 22.012" enable-background="new 0 0 22.011 22.012" xml:space="preserve">
<path fill="#fff" d="M13.076,14.063c-0.033,0-0.059,0.01-0.074,0.025l-0.164,0.696l0.277-0.717
	C13.101,14.064,13.088,14.063,13.076,14.063z M4.443,1.536c-0.563,0-1.085,0.246-1.587,0.737c-0.471,0.44-0.798,0.921-1.003,1.444
	c-0.215,0.532-0.318,1.095-0.318,1.7c0,0.952,0.226,1.986,0.676,3.051c0.461,1.085,1.106,2.211,1.925,3.338
	c0.819,1.126,1.751,2.222,2.774,3.256c1.024,1.014,2.13,1.955,3.266,2.785c1.106,0.809,2.242,1.464,3.369,1.935
	c1.75,0.747,3.388,0.921,4.74,0.358c0.522-0.215,0.983-0.543,1.402-1.014c0.236-0.256,0.42-0.532,0.574-0.86
	c0.123-0.256,0.184-0.522,0.184-0.788c0-0.164-0.031-0.328-0.113-0.512c-0.03-0.062-0.092-0.174-0.286-0.307l-3.399-2.416
	c-0.205-0.143-0.389-0.246-0.563-0.317c-0.226-0.092-0.318-0.184-0.666,0.031c-0.205,0.102-0.389,0.256-0.594,0.461l-0.778,0.768
	c-0.399,0.389-1.013,0.481-1.484,0.307l-0.277-0.123c-0.419-0.225-0.911-0.573-1.453-1.034c-0.492-0.42-1.024-0.911-1.669-1.546
	c-0.502-0.512-1.004-1.055-1.526-1.659c-0.481-0.563-0.829-1.044-1.044-1.444L6.47,9.378C6.409,9.143,6.388,9.01,6.388,8.866
	c0-0.369,0.133-0.696,0.389-0.952l0.768-0.799C7.75,6.911,7.903,6.716,8.006,6.542c0.082-0.133,0.112-0.246,0.112-0.348
	c0-0.082-0.03-0.205-0.081-0.328C7.965,5.703,7.852,5.518,7.709,5.324L5.334,1.966C5.231,1.822,5.108,1.72,4.955,1.648
	C4.791,1.577,4.617,1.536,4.443,1.536z M16.585,22.012c-1.157,0-2.375-0.276-3.634-0.809c-1.229-0.522-2.468-1.239-3.676-2.109
	c-1.197-0.88-2.354-1.863-3.45-2.938c-1.085-1.095-2.068-2.252-2.938-3.44C2.006,11.487,1.3,10.259,0.798,9.071
	C0.266,7.801,0,6.573,0,5.416C0,4.617,0.143,3.86,0.419,3.153c0.287-0.727,0.748-1.403,1.372-1.986C2.58,0.389,3.481,0,4.443,0
	C4.842,0,5.252,0.092,5.6,0.256C5.999,0.44,6.337,0.717,6.583,1.085l2.375,3.348c0.215,0.297,0.379,0.584,0.491,0.87
	c0.134,0.307,0.205,0.614,0.205,0.911c0,0.389-0.112,0.768-0.327,1.126c-0.154,0.276-0.389,0.573-0.686,0.87L7.944,8.938
	C7.955,8.969,7.965,8.989,7.975,9.01c0.123,0.215,0.369,0.584,0.84,1.136c0.501,0.573,0.972,1.095,1.443,1.577
	c0.604,0.594,1.106,1.065,1.577,1.454c0.583,0.491,0.962,0.737,1.188,0.85l-0.021,0.051l0.747-0.737
	c0.318-0.317,0.625-0.553,0.922-0.706c0.563-0.348,1.28-0.41,1.996-0.113c0.266,0.113,0.553,0.266,0.86,0.481l3.399,2.416
	c0.379,0.256,0.656,0.584,0.819,0.973c0.154,0.389,0.226,0.747,0.226,1.106c0,0.492-0.113,0.983-0.328,1.444
	s-0.481,0.86-0.819,1.229c-0.584,0.645-1.218,1.106-1.956,1.403C18.162,21.858,17.394,22.012,16.585,22.012z"/>
<path fill="#fff" d="M17.66,8.702c-0.419,0-0.768-0.348-0.768-0.768c0-0.369-0.368-1.136-0.982-1.792
	c-0.604-0.645-1.27-1.024-1.833-1.024c-0.42,0-0.768-0.348-0.768-0.768c0-0.42,0.348-0.768,0.768-0.768
	c0.993,0,2.037,0.532,2.949,1.505C17.875,6,18.428,7.115,18.428,7.935C18.428,8.354,18.08,8.702,17.66,8.702z"/>
<path fill="#fff" d="M21.244,8.702c-0.42,0-0.768-0.348-0.768-0.768c0-3.532-2.867-6.399-6.399-6.399
	c-0.42,0-0.768-0.348-0.768-0.768c0-0.42,0.348-0.768,0.768-0.768c4.372,0,7.934,3.563,7.934,7.935
	C22.011,8.354,21.663,8.702,21.244,8.702z"/>
</svg>
